Coordinates
version=1
nRows=38
nColumns=38
inDegrees=no

Units are S.I. units (second, meters, Newtons, ...)
If the header above contains a line with 'inDegrees', this indicates whether rotational values are in degrees (yes) or radians (no).

endheader
time	pelvis_tilt	pelvis_list	pelvis_rotation	pelvis_tx	pelvis_ty	pelvis_tz	hip_flexion_r	hip_adduction_r	hip_rotation_r	knee_angle_r	ankle_angle_r	subtalar_angle_r	mtp_angle_r	hip_flexion_l	hip_adduction_l	hip_rotation_l	knee_angle_l	ankle_angle_l	subtalar_angle_l	mtp_angle_l	lumbar_extension	lumbar_bending	lumbar_rotation	arm_flex_r	arm_add_r	arm_rot_r	elbow_flex_r	pro_sup_r	wrist_flex_r	wrist_dev_r	arm_flex_l	arm_add_l	arm_rot_l	elbow_flex_l	pro_sup_l	wrist_flex_l	wrist_dev_l
1.22	0.495961	1.35069	1.26677	0.910936	0.767871	1.03673	0.274677	0.108297	-0.141834	0.290896	-0.0931012	0	0	0.453279	-0.192851	-0.114336	1.15453	-0.161459	0	0	0.129281	0.0792096	0.00210791	-0.21683	-0.316472	0.100859	0.48743	1.41852	0	0	-0.233527	-0.180708	-0.501563	0.429035	1.0729	0	0
1.23	0.481151	1.36029	1.27667	0.909878	0.779063	1.03884	0.250792	0.103749	-0.14684	0.283386	-0.0958101	0	0	0.458594	-0.199789	-0.151752	1.13429	-0.156802	0	0	0.119786	0.0716813	0.0113056	-0.216246	-0.319932	0.094542	0.504602	1.41816	0	0	-0.237047	-0.181781	-0.496152	0.435473	1.07366	0	0
1.24	0.465327	1.36666	1.28638	0.908779	0.790169	1.04053	0.231241	0.0999304	-0.149957	0.278088	-0.0983491	0	0	0.465593	-0.205882	-0.184699	1.11	-0.152722	0	0	0.114148	0.065637	0.0213101	-0.218039	-0.325025	0.0882165	0.525809	1.41495	0	0	-0.241074	-0.18213	-0.490014	0.44206	1.07317	0	0
1.25	0.448565	1.37092	1.29665	0.907602	0.801156	1.04195	0.213853	0.0965677	-0.151574	0.272411	-0.101282	0	0	0.473477	-0.21081	-0.214622	1.08119	-0.149482	0	0	0.111056	0.0606258	0.0310442	-0.220291	-0.331515	0.0845869	0.548349	1.40846	0	0	-0.244942	-0.182183	-0.482134	0.447648	1.07173	0	0
1.26	0.426959	1.37282	1.31288	0.906325	0.812019	1.04311	0.199667	0.0924539	-0.154015	0.267701	-0.102803	0	0	0.483159	-0.213161	-0.239997	1.04809	-0.148141	0	0	0.112783	0.054662	0.0348376	-0.216849	-0.341853	0.103132	0.565435	1.3876	0	0	-0.251592	-0.179147	-0.489289	0.454382	1.07833	0	0
1.27	0.410439	1.37784	1.32431	0.905004	0.822729	1.04441	0.181932	0.0884662	-0.157365	0.262518	-0.106307	0	0	0.488122	-0.214645	-0.263622	1.01132	-0.148075	0	0	0.106952	0.050295	0.0442041	-0.220939	-0.349023	0.0952564	0.593057	1.38152	0	0	-0.252922	-0.181844	-0.465684	0.458133	1.05879	0	0
1.28	0.395677	1.38513	1.33298	0.903757	0.83323	1.0458	0.162277	0.0843934	-0.158675	0.25826	-0.109403	0	0	0.488856	-0.215754	-0.287998	0.970629	-0.149864	0	0	0.0939641	0.0467311	0.0630533	-0.235791	-0.331194	-0.00472781	0.625437	1.48869	0	0	-0.236523	-0.171176	-0.51223	0.453809	1.11818	0	0
1.29	0.376862	1.38933	1.34639	0.902445	0.843745	1.04682	0.146419	0.0802182	-0.159877	0.255147	-0.110905	0	0	0.491656	-0.215413	-0.31043	0.925912	-0.152814	0	0	0.0890619	0.042278	0.0707436	-0.237809	-0.335886	-0.0137263	0.650862	1.49091	0	0	-0.235768	-0.170611	-0.506944	0.455388	1.11964	0	0
1.3	0.358715	1.39267	1.35976	0.901076	0.85425	1.04765	0.130932	0.0765187	-0.160192	0.250811	-0.112256	0	0	0.493891	-0.213932	-0.331797	0.877244	-0.158798	0	0	0.0853322	0.0382243	0.0771405	-0.239237	-0.340609	-0.0212623	0.675157	1.49161	0	0	-0.235001	-0.170205	-0.501175	0.456586	1.1198	0	0
1.31	0.340614	1.39553	1.37366	0.899615	0.864736	1.04829	0.115758	0.0729039	-0.160636	0.246497	-0.11361	0	0	0.495277	-0.211401	-0.351952	0.825063	-0.167441	0	0	0.0822381	0.0343999	0.082558	-0.240334	-0.34547	-0.0274959	0.698806	1.49039	0	0	-0.234023	-0.169754	-0.495532	0.457976	1.11802	0	0
1.32	0.323704	1.39788	1.38699	0.898045	0.87518	1.04872	0.101126	0.0694389	-0.161264	0.242402	-0.114832	0	0	0.495886	-0.207666	-0.37017	0.769378	-0.178299	0	0	0.079865	0.0311115	0.0868497	-0.240956	-0.350678	-0.0321879	0.721746	1.48679	0	0	-0.232926	-0.169426	-0.489128	0.45926	1.11461	0	0
1.33	0.303859	1.39674	1.40385	0.896362	0.885635	1.04871	0.0904854	0.0657766	-0.1613	0.239227	-0.114806	0	0	0.499132	-0.20168	-0.385131	0.710448	-0.181899	0	0	0.084091	0.0272414	0.0847655	-0.235157	-0.360461	-0.0160676	0.73728	1.46823	0	0	-0.235812	-0.165242	-0.50293	0.462717	1.1243	0	0
1.34	0.286542	1.39659	1.41851	0.894616	0.896002	1.04862	0.0786257	0.0622181	-0.161373	0.235748	-0.115938	0	0	0.499805	-0.194028	-0.397952	0.647591	-0.194878	0	0	0.0837313	0.0244695	0.0878456	-0.235637	-0.362549	-0.0282342	0.758412	1.47507	0	0	-0.232394	-0.163294	-0.505787	0.462563	1.12962	0	0
1.35	0.269317	1.3946	1.4335	0.892775	0.906327	1.0482	0.0688949	0.0586912	-0.161764	0.232819	-0.116759	0	0	0.501121	-0.184152	-0.404779	0.580497	-0.214192	0	0	0.0851659	0.0225478	0.0896556	-0.23584	-0.370177	-0.02651	0.780896	1.45588	0	0	-0.232976	-0.169854	-0.465098	0.462576	1.09058	0	0
1.36	0.255446	1.3898	1.44552	0.890793	0.91666	1.04735	0.0620588	0.0559216	-0.1616	0.230072	-0.116475	0	0	0.503927	-0.17233	-0.403102	0.50895	-0.230883	0	0	0.0892927	0.0216806	0.0942171	-0.240595	-0.360552	-0.0689321	0.801002	1.5082	0	0	-0.221768	-0.160313	-0.510091	0.455754	1.14389	0	0
1.37	0.248445	1.38374	1.45124	0.88874	0.927044	1.04618	0.0557356	0.0545718	-0.158753	0.226301	-0.116033	0	0	0.50613	-0.159455	-0.392082	0.432917	-0.2432	0	0	0.0962761	0.0220818	0.0938386	-0.240696	-0.364303	-0.0737936	0.819321	1.50812	0	0	-0.220306	-0.160178	-0.504837	0.453964	1.14173	0	0
1.38	0.246253	1.37609	1.45174	0.886748	0.937446	1.04465	0.0512473	0.0542129	-0.155802	0.223407	-0.115229	0	0	0.508023	-0.147015	-0.372299	0.35391	-0.252962	0	0	0.104923	0.0236574	0.0935674	-0.240915	-0.367901	-0.0780075	0.836953	1.50782	0	0	-0.219304	-0.159817	-0.499636	0.452957	1.13725	0	0
1.39	0.247871	1.36667	1.4481	0.884789	0.947866	1.0427	0.0486995	0.0548671	-0.153412	0.221171	-0.113921	0	0	0.509898	-0.135594	-0.342492	0.273484	-0.260894	0	0	0.11526	0.0264594	0.0935144	-0.241827	-0.37147	-0.0821943	0.854508	1.50722	0	0	-0.218428	-0.159593	-0.492904	0.451777	1.12965	0	0
1.4	0.255754	1.35759	1.43724	0.882892	0.958388	1.0405	0.0455819	0.0569339	-0.150933	0.219269	-0.112775	0	0	0.510272	-0.127818	-0.311366	0.196351	-0.263449	0	0	0.125025	0.030688	0.0932378	-0.241624	-0.376955	-0.081378	0.870897	1.50222	0	0	-0.217562	-0.156094	-0.50338	0.451942	1.14098	0	0
1.41	0.267239	1.34862	1.42204	0.881036	0.969001	1.03805	0.0427596	0.0596433	-0.148787	0.21884	-0.110612	0	0	0.509424	-0.122834	-0.278726	0.122651	-0.267426	0	0	0.133962	0.0365438	0.0949442	-0.243505	-0.379962	-0.0880405	0.888552	1.505	0	0	-0.215912	-0.153459	-0.507527	0.45167	1.14621	0	0
1.42	0.27894	1.34113	1.40571	0.879207	0.979751	1.03554	0.0383883	0.0623871	-0.146169	0.218893	-0.108131	0	0	0.507667	-0.120414	-0.250496	0.0567356	-0.270244	0	0	0.140763	0.0425112	0.0975238	-0.244871	-0.383441	-0.0930259	0.905292	1.50603	0	0	-0.214776	-0.150411	-0.511069	0.453733	1.1471	0	0
1.43	0.289905	1.33492	1.39026	0.877282	0.99056	1.03297	0.0336707	0.0646271	-0.145646	0.221657	-0.103671	0	0	0.505894	-0.119442	-0.22417	0	-0.276895	0	0	0.145902	0.0486957	0.0988726	-0.245036	-0.394765	-0.0814561	0.922813	1.47499	0	0	-0.220382	-0.159006	-0.452595	0.459029	1.0831	0	0
1.44	0.297663	1.33015	1.37746	0.875345	1.00158	1.03046	0.0289333	0.0653724	-0.146078	0.228286	-0.0958274	0	0	0.51136	-0.121903	-0.223362	0	-0.263398	0	0	0.148056	0.053586	0.106087	-0.250175	-0.389914	-0.10515	0.939243	1.49891	0	0	-0.214273	-0.156109	-0.459911	0.457589	1.09718	0	0
1.45	0.29992	1.32688	1.36992	0.87339	1.0128	1.02812	0.0232479	0.064487	-0.145792	0.23544	-0.092304	0	0	0.515469	-0.123323	-0.223103	0	-0.255669	0	0	0.150377	0.0560478	0.108963	-0.248445	-0.392306	-0.105823	0.949119	1.49579	0	0	-0.213123	-0.155798	-0.455976	0.458592	1.09288	0	0
1.46	0.297792	1.32545	1.36654	0.871399	1.02418	1.02595	0.0169441	0.0619067	-0.145665	0.244614	-0.0892701	0	0	0.518081	-0.12337	-0.223824	0	-0.247095	0	0	0.150855	0.0567154	0.112235	-0.245621	-0.39398	-0.105503	0.956334	1.49217	0	0	-0.210973	-0.155434	-0.45358	0.458659	1.08692	0	0
1.47	0.290377	1.32503	1.36858	0.86932	1.0357	1.02399	0.0105338	0.0577355	-0.144261	0.254639	-0.0898495	0	0	0.520012	-0.121234	-0.224311	0	-0.244089	0	0	0.15114	0.055194	0.114716	-0.240763	-0.392619	-0.106908	0.958588	1.49843	0	0	-0.206494	-0.150302	-0.479343	0.456633	1.11109	0	0
1.48	0.279254	1.32581	1.3747	0.867145	1.04735	1.02224	0.00374489	0.052152	-0.142244	0.265306	-0.0886785	0	0	0.521489	-0.117564	-0.224076	0	-0.238639	0	0	0.149895	0.0523893	0.117682	-0.236114	-0.391903	-0.106079	0.959715	1.49855	0	0	-0.203145	-0.149901	-0.481068	0.454548	1.1113	0	0
1.49	0.263998	1.32795	1.38509	0.864947	1.05916	1.02072	-0.00304143	0.0450204	-0.140546	0.27898	-0.0872028	0	0	0.522072	-0.11276	-0.223552	0	-0.233519	0	0	0.147148	0.0479373	0.121061	-0.23125	-0.390277	-0.105179	0.958861	1.49829	0	0	-0.198992	-0.149614	-0.483431	0.451841	1.11009	0	0
1.5	0.244999	1.33265	1.39934	0.862707	1.07114	1.01949	-0.0105005	0.0362347	-0.141668	0.298375	-0.0841944	0	0	0.519822	-0.106681	-0.222841	0	-0.228889	0	0	0.141785	0.0421398	0.122546	-0.223816	-0.397685	-0.0837998	0.957218	1.46073	0	0	-0.20086	-0.159622	-0.433924	0.450959	1.05715	0	0
1.51	0.228704	1.33517	1.41195	0.860326	1.08347	1.01812	-0.0173454	0.0291006	-0.139249	0.312642	-0.0848741	0	0	0.519387	-0.10127	-0.218147	0	-0.229925	0	0	0.139259	0.0372265	0.125485	-0.221259	-0.39344	-0.0862922	0.954337	1.4664	0	0	-0.197875	-0.159295	-0.437282	0.447824	1.0603	0	0
1.52	0.209452	1.33934	1.42707	0.857863	1.09611	1.01689	-0.0233725	0.0200877	-0.139906	0.3344	-0.0869454	0	0	0.516	-0.0950978	-0.214265	0.00199907	-0.238088	0	0	0.134948	0.0311551	0.130293	-0.220224	-0.382548	-0.101538	0.949407	1.49643	0	0	-0.190117	-0.150668	-0.48403	0.442586	1.10294	0	0
1.53	0.191127	1.34046	1.4397	0.855343	1.10914	1.01543	-0.0257783	0.0116496	-0.136447	0.356219	-0.091362	0	0	0.518973	-0.091511	-0.222922	0.032602	-0.246298	0	0	0.13656	0.0265823	0.133694	-0.218474	-0.380738	-0.0963841	0.942711	1.4966	0	0	-0.191389	-0.150182	-0.484954	0.440033	1.09607	0	0
1.54	0.169179	1.33958	1.45554	0.852848	1.12225	1.01401	-0.0241261	0.00260519	-0.129954	0.381489	-0.0970004	0	0	0.522688	-0.0864524	-0.226943	0.0553188	-0.262681	0	0	0.141022	0.021052	0.136958	-0.216046	-0.378248	-0.0893487	0.93259	1.4971	0	0	-0.193458	-0.150868	-0.484258	0.435775	1.09111	0	0
1.55	0.139453	1.33582	1.47954	0.850455	1.13528	1.01278	-0.0166392	-0.00775031	-0.120697	0.41172	-0.105295	0	0	0.529709	-0.0792603	-0.232011	0.0761604	-0.281324	0	0	0.149968	0.0130993	0.138619	-0.21106	-0.374489	-0.0783527	0.91637	1.49742	0	0	-0.195816	-0.152704	-0.483263	0.428879	1.08289	0	0
1.56	0.107272	1.33316	1.50797	0.848081	1.14813	1.01214	-0.00789973	-0.0186384	-0.111484	0.446249	-0.113811	0	0	0.535217	-0.0717559	-0.237835	0.0984244	-0.28813	0	0	0.155253	0.00331751	0.142373	-0.208235	-0.365678	-0.0787039	0.899795	1.50534	0	0	-0.192681	-0.155834	-0.48128	0.418054	1.08094	0	0
1.57	0.0734938	1.32624	1.53911	0.845773	1.16082	1.0116	0.00879791	-0.0296711	-0.0993784	0.487324	-0.129494	0	0	0.545462	-0.0661996	-0.246302	0.125804	-0.289639	0	0	0.168431	-0.00729284	0.140126	-0.200137	-0.357557	-0.0678962	0.874401	1.51114	0	0	-0.19326	-0.157763	-0.490695	0.406329	1.08583	0	0
1.58	0.0404374	1.32009	1.57131	0.84343	1.17336	1.0115	0.027286	-0.0409595	-0.0873075	0.532015	-0.152759	0	0	0.555088	-0.0612701	-0.255362	0.157591	-0.283252	0	0	0.181523	-0.0185397	0.131544	-0.186534	-0.359322	-0.0277429	0.845916	1.47523	0	0	-0.201651	-0.165093	-0.464518	0.399969	1.04726	0	0
1.59	0.00788768	1.31727	1.60466	0.841021	1.18574	1.01201	0.0444186	-0.052667	-0.0760931	0.578684	-0.188475	0	0	0.560894	-0.0555017	-0.261579	0.190849	-0.275871	0	0	0.186343	-0.0304078	0.12801	-0.180562	-0.342634	-0.036463	0.82084	1.50542	0	0	-0.195223	-0.158272	-0.527023	0.389179	1.10616	0	0
